<?xml version="1.0" encoding="utf-8" standalone="no"?>
<!DOCTYPE svg PUBLIC "-//W3C//DTD SVG 1.1//EN"
  "http://www.w3.org/Graphics/SVG/1.1/DTD/svg11.dtd">
<svg xmlns:xlink="http://www.w3.org/1999/xlink" width="460.8pt" height="345.6pt" viewBox="0 0 460.8 345.6" xmlns="http://www.w3.org/2000/svg" version="1.1">
 <metadata>
  <rdf:RDF xmlns:dc="http://purl.org/dc/elements/1.1/" xmlns:cc="http://creativecommons.org/ns#" xmlns:rdf="http://www.w3.org/1999/02/22-rdf-syntax-ns#">
   <cc:Work>
    <dc:type rdf:resource="http://purl.org/dc/dcmitype/StillImage"/>
    <dc:date>2022-11-08T13:56:58.344667</dc:date>
    <dc:format>image/svg+xml</dc:format>
    <dc:creator>
     <cc:Agent>
      <dc:title>Matplotlib v3.5.2, https://matplotlib.org/</dc:title>
     </cc:Agent>
    </dc:creator>
   </cc:Work>
  </rdf:RDF>
 </metadata>
 <defs>
  <style type="text/css">*{stroke-linejoin: round; stroke-linecap: butt}</style>
 </defs>
 <g id="figure_1">
  <g id="patch_1">
   <path d="M 0 345.6 
L 460.8 345.6 
L 460.8 0 
L 0 0 
z
" style="fill: #ffffff"/>
  </g>
  <g id="axes_1">
   <g id="patch_2">
    <path d="M 57.6 307.584 
L 414.72 307.584 
L 414.72 41.472 
L 57.6 41.472 
z
" style="fill: #ffffff"/>
   </g>
   <g id="matplotlib.axis_1">
    <g id="xtick_1">
     <g id="line2d_1">
      <path d="M 93.672727 307.584 
L 93.672727 41.472 
" clip-path="url(#p4d68c7d9dd)" style="fill: none; stroke: #cccccc; stroke-width: 1.5; stroke-linecap: round"/>
     </g>
     <g id="text_1">
      <!-- −4 -->
      <g style="fill: #262626" transform="translate(81.510423 332.621422)scale(0.165 -0.165)">
       <defs>
        <path id="DejaVuSans-2212" d="M 678 2272 
L 4684 2272 
L 4684 1741 
L 678 1741 
L 678 2272 
z
" transform="scale(0.015625)"/>
        <path id="DejaVuSans-34" d="M 2419 4116 
L 825 1625 
L 2419 1625 
L 2419 4116 
z
M 2253 4666 
L 3047 4666 
L 3047 1625 
L 3713 1625 
L 3713 1100 
L 3047 1100 
L 3047 0 
L 2419 0 
L 2419 1100 
L 313 1100 
L 313 1709 
L 2253 4666 
z
" transform="scale(0.015625)"/>
       </defs>
       <use xlink:href="#DejaVuSans-2212"/>
       <use xlink:href="#DejaVuSans-34" x="83.789062"/>
      </g>
     </g>
    </g>
    <g id="xtick_2">
     <g id="line2d_2">
      <path d="M 165.818182 307.584 
L 165.818182 41.472 
" clip-path="url(#p4d68c7d9dd)" style="fill: none; stroke: #cccccc; stroke-width: 1.5; stroke-linecap: round"/>
     </g>
     <g id="text_2">
      <!-- −2 -->
      <g style="fill: #262626" transform="translate(153.655877 332.621422)scale(0.165 -0.165)">
       <defs>
        <path id="DejaVuSans-32" d="M 1228 531 
L 3431 531 
L 3431 0 
L 469 0 
L 469 531 
Q 828 903 1448 1529 
Q 2069 2156 2228 2338 
Q 2531 2678 2651 2914 
Q 2772 3150 2772 3378 
Q 2772 3750 2511 3984 
Q 2250 4219 1831 4219 
Q 1534 4219 1204 4116 
Q 875 4013 500 3803 
L 500 4441 
Q 881 4594 1212 4672 
Q 1544 4750 1819 4750 
Q 2544 4750 2975 4387 
Q 3406 4025 3406 3419 
Q 3406 3131 3298 2873 
Q 3191 2616 2906 2266 
Q 2828 2175 2409 1742 
Q 1991 1309 1228 531 
z
" transform="scale(0.015625)"/>
       </defs>
       <use xlink:href="#DejaVuSans-2212"/>
       <use xlink:href="#DejaVuSans-32" x="83.789062"/>
      </g>
     </g>
    </g>
    <g id="xtick_3">
     <g id="line2d_3">
      <path d="M 237.963636 307.584 
L 237.963636 41.472 
" clip-path="url(#p4d68c7d9dd)" style="fill: none; stroke: #cccccc; stroke-width: 1.5; stroke-linecap: round"/>
     </g>
     <g id="text_3">
      <!-- 0 -->
      <g style="fill: #262626" transform="translate(232.714574 332.621422)scale(0.165 -0.165)">
       <defs>
        <path id="DejaVuSans-30" d="M 2034 4250 
Q 1547 4250 1301 3770 
Q 1056 3291 1056 2328 
Q 1056 1369 1301 889 
Q 1547 409 2034 409 
Q 2525 409 2770 889 
Q 3016 1369 3016 2328 
Q 3016 3291 2770 3770 
Q 2525 4250 2034 4250 
z
M 2034 4750 
Q 2819 4750 3233 4129 
Q 3647 3509 3647 2328 
Q 3647 1150 3233 529 
Q 2819 -91 2034 -91 
Q 1250 -91 836 529 
Q 422 1150 422 2328 
Q 422 3509 836 4129 
Q 1250 4750 2034 4750 
z
" transform="scale(0.015625)"/>
       </defs>
       <use xlink:href="#DejaVuSans-30"/>
      </g>
     </g>
    </g>
    <g id="xtick_4">
     <g id="line2d_4">
      <path d="M 310.109091 307.584 
L 310.109091 41.472 
" clip-path="url(#p4d68c7d9dd)" style="fill: none; stroke: #cccccc; stroke-width: 1.5; stroke-linecap: round"/>
     </g>
     <g id="text_4">
      <!-- 2 -->
      <g style="fill: #262626" transform="translate(304.860028 332.621422)scale(0.165 -0.165)">
       <use xlink:href="#DejaVuSans-32"/>
      </g>
     </g>
    </g>
    <g id="xtick_5">
     <g id="line2d_5">
      <path d="M 382.254545 307.584 
L 382.254545 41.472 
" clip-path="url(#p4d68c7d9dd)" style="fill: none; stroke: #cccccc; stroke-width: 1.5; stroke-linecap: round"/>
     </g>
     <g id="text_5">
      <!-- 4 -->
      <g style="fill: #262626" transform="translate(377.005483 332.621422)scale(0.165 -0.165)">
       <use xlink:href="#DejaVuSans-34"/>
      </g>
     </g>
    </g>
   </g>
   <g id="matplotlib.axis_2">
    <g id="ytick_1">
     <g id="line2d_6">
      <path d="M 57.6 280.704 
L 414.72 280.704 
" clip-path="url(#p4d68c7d9dd)" style="fill: none; stroke: #cccccc; stroke-width: 1.5; stroke-linecap: round"/>
     </g>
     <g id="text_6">
      <!-- −4 -->
      <g style="fill: #262626" transform="translate(20.775391 286.972711)scale(0.165 -0.165)">
       <use xlink:href="#DejaVuSans-2212"/>
       <use xlink:href="#DejaVuSans-34" x="83.789062"/>
      </g>
     </g>
    </g>
    <g id="ytick_2">
     <g id="line2d_7">
      <path d="M 57.6 226.944 
L 414.72 226.944 
" clip-path="url(#p4d68c7d9dd)" style="fill: none; stroke: #cccccc; stroke-width: 1.5; stroke-linecap: round"/>
     </g>
     <g id="text_7">
      <!-- −2 -->
      <g style="fill: #262626" transform="translate(20.775391 233.212711)scale(0.165 -0.165)">
       <use xlink:href="#DejaVuSans-2212"/>
       <use xlink:href="#DejaVuSans-32" x="83.789062"/>
      </g>
     </g>
    </g>
    <g id="ytick_3">
     <g id="line2d_8">
      <path d="M 57.6 173.184 
L 414.72 173.184 
" clip-path="url(#p4d68c7d9dd)" style="fill: none; stroke: #cccccc; stroke-width: 1.5; stroke-linecap: round"/>
     </g>
     <g id="text_8">
      <!-- 0 -->
      <g style="fill: #262626" transform="translate(34.601875 179.452711)scale(0.165 -0.165)">
       <use xlink:href="#DejaVuSans-30"/>
      </g>
     </g>
    </g>
    <g id="ytick_4">
     <g id="line2d_9">
      <path d="M 57.6 119.424 
L 414.72 119.424 
" clip-path="url(#p4d68c7d9dd)" style="fill: none; stroke: #cccccc; stroke-width: 1.5; stroke-linecap: round"/>
     </g>
     <g id="text_9">
      <!-- 2 -->
      <g style="fill: #262626" transform="translate(34.601875 125.692711)scale(0.165 -0.165)">
       <use xlink:href="#DejaVuSans-32"/>
      </g>
     </g>
    </g>
    <g id="ytick_5">
     <g id="line2d_10">
      <path d="M 57.6 65.664 
L 414.72 65.664 
" clip-path="url(#p4d68c7d9dd)" style="fill: none; stroke: #cccccc; stroke-width: 1.5; stroke-linecap: round"/>
     </g>
     <g id="text_10">
      <!-- 4 -->
      <g style="fill: #262626" transform="translate(34.601875 71.932711)scale(0.165 -0.165)">
       <use xlink:href="#DejaVuSans-34"/>
      </g>
     </g>
    </g>
   </g>
   <g id="PathCollection_1">
    <path d="M 57.6 304.896 
L 57.6 302.208 
L 57.6 299.52 
L 57.6 296.832 
L 57.6 294.144 
L 57.6 291.456 
L 57.6 288.768 
L 57.6 286.08 
L 57.6 283.392 
L 57.6 280.704 
L 57.6 278.016 
L 57.6 275.328 
L 57.6 272.64 
L 57.6 269.952 
L 57.6 267.264 
L 57.6 264.576 
L 57.6 261.888 
L 57.6 259.2 
L 57.6 256.512 
L 57.6 253.824 
L 57.6 251.136 
L 57.6 248.448 
L 57.6 245.76 
L 57.6 243.072 
L 57.6 240.384 
L 57.6 237.696 
L 57.6 235.008 
L 57.6 232.32 
L 57.6 229.632 
L 57.6 226.944 
L 57.6 224.256 
L 57.6 221.568 
L 57.6 218.88 
L 57.6 216.192 
L 57.6 213.504 
L 57.6 210.816 
L 57.6 208.128 
L 57.6 205.44 
L 57.6 202.752 
L 57.6 200.064 
L 57.6 197.376 
L 57.6 194.688 
L 57.6 192 
L 57.6 189.312 
L 57.6 186.624 
L 57.6 183.936 
L 57.6 181.248 
L 57.6 178.56 
L 57.6 175.872 
L 57.6 173.184 
L 57.6 170.496 
L 57.6 167.808 
L 57.6 165.12 
L 57.6 162.432 
L 57.6 159.744 
L 57.6 157.056 
L 57.6 154.368 
L 57.6 151.68 
L 57.6 148.992 
L 57.6 146.304 
L 57.6 143.616 
L 57.6 140.928 
L 57.6 138.24 
L 57.6 135.552 
L 57.6 132.864 
L 57.6 130.176 
L 57.6 127.488 
L 57.6 124.8 
L 57.6 122.112 
L 57.6 119.424 
L 57.6 116.736 
L 57.6 114.048 
L 57.6 111.36 
L 57.6 108.672 
L 57.6 105.984 
L 57.6 103.296 
L 57.6 100.608 
L 57.6 97.92 
L 57.6 95.232 
L 57.6 92.544 
L 57.6 89.856 
L 57.6 87.168 
L 57.6 84.48 
L 57.6 81.792 
L 57.6 79.104 
L 57.6 76.416 
L 57.6 73.728 
L 57.6 71.04 
L 57.6 68.352 
L 57.6 65.664 
L 57.6 62.976 
L 57.6 60.288 
L 57.6 57.6 
L 57.6 54.912 
L 57.6 52.224 
L 57.6 49.536 
L 57.6 46.848 
L 57.6 44.16 
L 57.6 41.472 
L 61.207273 41.472 
L 64.814545 41.472 
L 68.421818 41.472 
L 72.029091 41.472 
L 75.636364 41.472 
L 79.243636 41.472 
L 82.850909 41.472 
L 86.458182 41.472 
L 90.065455 41.472 
L 93.672727 41.472 
L 97.28 41.472 
L 100.887273 41.472 
L 104.494545 41.472 
L 108.101818 41.472 
L 111.709091 41.472 
L 115.316364 41.472 
L 118.923636 41.472 
L 122.530909 41.472 
L 126.138182 41.472 
L 129.745455 41.472 
L 133.352727 41.472 
L 136.96 41.472 
L 140.567273 41.472 
L 144.174545 41.472 
L 147.781818 41.472 
L 151.389091 41.472 
L 154.996364 41.472 
L 158.603636 41.472 
L 162.210909 41.472 
L 165.818182 41.472 
L 169.425455 41.472 
L 173.032727 41.472 
L 176.64 41.472 
L 180.247273 41.472 
L 183.854545 41.472 
L 187.461818 41.472 
L 191.069091 41.472 
L 194.676364 41.472 
L 198.283636 41.472 
L 201.890909 41.472 
L 205.498182 41.472 
L 209.105455 41.472 
L 212.712727 41.472 
L 216.32 41.472 
L 219.927273 41.472 
L 223.534545 41.472 
L 227.141818 41.472 
L 230.749091 41.472 
L 234.356364 41.472 
L 237.963636 41.472 
L 241.570909 41.472 
L 245.178182 41.472 
L 248.785455 41.472 
L 252.392727 41.472 
L 256 41.472 
L 259.607273 41.472 
L 263.214545 41.472 
L 266.821818 41.472 
L 270.429091 41.472 
L 274.036364 41.472 
L 277.643636 41.472 
L 281.250909 41.472 
L 284.858182 41.472 
L 288.465455 41.472 
L 292.072727 41.472 
L 295.68 41.472 
L 299.287273 41.472 
L 302.894545 41.472 
L 306.501818 41.472 
L 310.109091 41.472 
L 313.716364 41.472 
L 317.323636 41.472 
L 320.930909 41.472 
L 324.538182 41.472 
L 328.145455 41.472 
L 331.752727 41.472 
L 335.36 41.472 
L 338.967273 41.472 
L 342.574545 41.472 
L 346.181818 41.472 
L 349.789091 41.472 
L 353.396364 41.472 
L 357.003636 41.472 
L 360.610909 41.472 
L 364.218182 41.472 
L 367.825455 41.472 
L 371.432727 41.472 
L 375.04 41.472 
L 378.647273 41.472 
L 382.254545 41.472 
L 385.861818 41.472 
L 389.469091 41.472 
L 393.076364 41.472 
L 396.683636 41.472 
L 400.290909 41.472 
L 403.898182 41.472 
L 407.505455 41.472 
L 411.112727 41.472 
L 414.72 41.472 
L 414.72 44.16 
L 414.72 46.848 
L 414.72 49.536 
L 414.72 52.224 
L 414.72 54.912 
L 414.72 57.6 
L 414.72 60.288 
L 414.72 62.976 
L 414.72 65.664 
L 414.72 68.352 
L 414.72 71.04 
L 414.72 73.728 
L 414.72 76.416 
L 414.72 79.104 
L 414.72 81.792 
L 414.72 84.48 
L 414.72 87.168 
L 414.72 89.856 
L 414.72 92.544 
L 414.72 95.232 
L 414.72 97.92 
L 414.72 100.608 
L 414.72 103.296 
L 414.72 105.984 
L 414.72 108.672 
L 414.72 111.36 
L 414.72 114.048 
L 414.72 116.736 
L 414.72 119.424 
L 414.72 122.112 
L 414.72 124.8 
L 414.72 127.488 
L 414.72 130.176 
L 414.72 132.864 
L 414.72 135.552 
L 414.72 138.24 
L 414.72 140.928 
L 414.72 143.616 
L 414.72 146.304 
L 414.72 148.992 
L 414.72 151.68 
L 414.72 154.368 
L 414.72 157.056 
L 414.72 159.744 
L 414.72 162.432 
L 414.72 165.12 
L 414.72 167.808 
L 414.72 170.496 
L 414.72 173.184 
L 414.72 175.872 
L 414.72 178.56 
L 414.72 181.248 
L 414.72 183.936 
L 414.72 186.624 
L 414.72 189.312 
L 414.72 192 
L 414.72 194.688 
L 414.72 197.376 
L 414.72 200.064 
L 414.72 202.752 
L 414.72 205.44 
L 414.72 208.128 
L 414.72 210.816 
L 414.72 213.504 
L 414.72 216.192 
L 414.72 218.88 
L 414.72 221.568 
L 414.72 224.256 
L 414.72 226.944 
L 414.72 229.632 
L 414.72 232.32 
L 414.72 235.008 
L 414.72 237.696 
L 414.72 240.384 
L 414.72 243.072 
L 414.72 245.76 
L 414.72 248.448 
L 414.72 251.136 
L 414.72 253.824 
L 414.72 256.512 
L 414.72 259.2 
L 414.72 261.888 
L 414.72 264.576 
L 414.72 267.264 
L 414.72 269.952 
L 414.72 272.64 
L 414.72 275.328 
L 414.72 278.016 
L 414.72 280.704 
L 414.72 283.392 
L 414.72 286.08 
L 414.72 288.768 
L 414.72 291.456 
L 414.72 294.144 
L 414.72 296.832 
L 414.72 299.52 
L 414.72 302.208 
L 414.72 304.896 
L 414.72 307.584 
L 411.112727 307.584 
L 407.505455 307.584 
L 403.898182 307.584 
L 400.290909 307.584 
L 396.683636 307.584 
L 393.076364 307.584 
L 389.469091 307.584 
L 385.861818 307.584 
L 382.254545 307.584 
L 378.647273 307.584 
L 375.04 307.584 
L 371.432727 307.584 
L 367.825455 307.584 
L 364.218182 307.584 
L 360.610909 307.584 
L 357.003636 307.584 
L 353.396364 307.584 
L 349.789091 307.584 
L 346.181818 307.584 
L 342.574545 307.584 
L 338.967273 307.584 
L 335.36 307.584 
L 331.752727 307.584 
L 328.145455 307.584 
L 324.538182 307.584 
L 320.930909 307.584 
L 317.323636 307.584 
L 313.716364 307.584 
L 310.109091 307.584 
L 306.501818 307.584 
L 302.894545 307.584 
L 299.287273 307.584 
L 295.68 307.584 
L 292.072727 307.584 
L 288.465455 307.584 
L 284.858182 307.584 
L 281.250909 307.584 
L 277.643636 307.584 
L 274.036364 307.584 
L 270.429091 307.584 
L 266.821818 307.584 
L 263.214545 307.584 
L 259.607273 307.584 
L 256 307.584 
L 252.392727 307.584 
L 248.785455 307.584 
L 245.178182 307.584 
L 241.570909 307.584 
L 237.963636 307.584 
L 234.356364 307.584 
L 230.749091 307.584 
L 227.141818 307.584 
L 223.534545 307.584 
L 219.927273 307.584 
L 216.32 307.584 
L 212.712727 307.584 
L 209.105455 307.584 
L 205.498182 307.584 
L 201.890909 307.584 
L 198.283636 307.584 
L 194.676364 307.584 
L 191.069091 307.584 
L 187.461818 307.584 
L 183.854545 307.584 
L 180.247273 307.584 
L 176.64 307.584 
L 173.032727 307.584 
L 169.425455 307.584 
L 165.818182 307.584 
L 162.210909 307.584 
L 158.603636 307.584 
L 154.996364 307.584 
L 151.389091 307.584 
L 147.781818 307.584 
L 144.174545 307.584 
L 140.567273 307.584 
L 136.96 307.584 
L 133.352727 307.584 
L 129.745455 307.584 
L 126.138182 307.584 
L 122.530909 307.584 
L 118.923636 307.584 
L 115.316364 307.584 
L 111.709091 307.584 
L 108.101818 307.584 
L 104.494545 307.584 
L 100.887273 307.584 
L 97.28 307.584 
L 93.672727 307.584 
L 90.065455 307.584 
L 86.458182 307.584 
L 82.850909 307.584 
L 79.243636 307.584 
L 75.636364 307.584 
L 72.029091 307.584 
L 68.421818 307.584 
L 64.814545 307.584 
L 61.207273 307.584 
L 57.6 307.584 
z
M 126.138182 131.49465 
L 126.48029 132.864 
L 127.350387 135.552 
L 128.458015 138.24 
L 129.745455 140.754674 
L 129.827847 140.928 
L 131.305969 143.616 
L 133.116083 146.304 
L 133.352727 146.618119 
L 135.084691 148.992 
L 136.96 151.168168 
L 137.397064 151.68 
L 139.966723 154.368 
L 140.567273 154.936429 
L 142.860574 157.056 
L 144.174545 158.158912 
L 146.154749 159.744 
L 147.781818 160.956429 
L 149.908993 162.432 
L 151.389091 163.411121 
L 154.233536 165.12 
L 154.996364 165.567507 
L 158.603636 167.482317 
L 159.290511 167.808 
L 162.210909 169.205408 
L 165.396637 170.496 
L 165.818182 170.672338 
L 169.425455 172.021165 
L 173.032727 173.122604 
L 173.26533 173.184 
L 176.64 174.14335 
L 180.247273 174.968711 
L 183.854545 175.617074 
L 185.692201 175.872 
L 187.461818 176.147725 
L 191.069091 176.554263 
L 194.676364 176.806446 
L 198.283636 176.910667 
L 201.890909 176.868337 
L 205.498182 176.67597 
L 209.105455 176.324984 
L 212.24224 175.872 
L 212.712727 175.810604 
L 216.32 175.187718 
L 219.927273 174.370638 
L 223.534545 173.326029 
L 223.954939 173.184 
L 227.141818 172.145804 
L 230.749091 170.688634 
L 231.170635 170.496 
L 234.356364 169.033524 
L 236.624831 167.808 
L 237.963636 167.059777 
L 241.017001 165.12 
L 241.570909 164.74481 
L 244.674681 162.432 
L 245.178182 162.019249 
L 247.781345 159.744 
L 248.785455 158.746374 
L 250.430098 157.056 
L 252.392727 154.682119 
L 252.651241 154.368 
L 254.60675 151.68 
L 256 149.305261 
L 256.190602 148.992 
L 257.592457 146.304 
L 258.688972 143.616 
L 259.52488 140.928 
L 259.607273 140.577411 
L 260.215173 138.24 
L 260.686194 135.552 
L 260.944348 132.864 
L 261.001154 130.176 
L 260.861291 127.488 
L 260.522863 124.8 
L 259.977293 122.112 
L 259.607273 120.79335 
L 259.265164 119.424 
L 258.395067 116.736 
L 257.287439 114.048 
L 256 111.533326 
L 255.917607 111.36 
L 254.439485 108.672 
L 252.629372 105.984 
L 252.392727 105.669881 
L 250.660764 103.296 
L 248.785455 101.119832 
L 248.348391 100.608 
L 245.778732 97.92 
L 245.178182 97.351571 
L 242.88488 95.232 
L 241.570909 94.129088 
L 239.590705 92.544 
L 237.963636 91.331571 
L 235.836462 89.856 
L 234.356364 88.876879 
L 231.511918 87.168 
L 230.749091 86.720493 
L 227.141818 84.805683 
L 226.454944 84.48 
L 223.534545 83.082592 
L 220.348817 81.792 
L 219.927273 81.615662 
L 216.32 80.266835 
L 212.712727 79.165396 
L 212.480125 79.104 
L 209.105455 78.14465 
L 205.498182 77.319289 
L 201.890909 76.670926 
L 200.053254 76.416 
L 198.283636 76.140275 
L 194.676364 75.733737 
L 191.069091 75.481554 
L 187.461818 75.377333 
L 183.854545 75.419663 
L 180.247273 75.61203 
L 176.64 75.963016 
L 173.503215 76.416 
L 173.032727 76.477396 
L 169.425455 77.100282 
L 165.818182 77.917362 
L 162.210909 78.961971 
L 161.790516 79.104 
L 158.603636 80.142196 
L 154.996364 81.599366 
L 154.574819 81.792 
L 151.389091 83.254476 
L 149.120623 84.48 
L 147.781818 85.228223 
L 144.728454 87.168 
L 144.174545 87.54319 
L 141.070774 89.856 
L 140.567273 90.268751 
L 137.964109 92.544 
L 136.96 93.541626 
L 135.315357 95.232 
L 133.352727 97.605881 
L 133.094214 97.92 
L 131.138704 100.608 
L 129.745455 102.982739 
L 129.554853 103.296 
L 128.152997 105.984 
L 127.056483 108.672 
L 126.220575 111.36 
L 126.138182 111.710589 
L 125.530281 114.048 
L 125.059261 116.736 
L 124.801106 119.424 
L 124.7443 122.112 
L 124.884163 124.8 
L 125.222591 127.488 
L 125.768162 130.176 
z
" clip-path="url(#p4d68c7d9dd)" style="fill: #e9f2fa"/>
   </g>
   <g id="PathCollection_2">
    <path d="M 125.768162 130.176 
L 125.222591 127.488 
L 124.884163 124.8 
L 124.7443 122.112 
L 124.801106 119.424 
L 125.059261 116.736 
L 125.530281 114.048 
L 126.138182 111.710589 
L 126.220575 111.36 
L 127.056483 108.672 
L 128.152997 105.984 
L 129.554853 103.296 
L 129.745455 102.982739 
L 131.138704 100.608 
L 133.094214 97.92 
L 133.352727 97.605881 
L 135.315357 95.232 
L 136.96 93.541626 
L 137.964109 92.544 
L 140.567273 90.268751 
L 141.070774 89.856 
L 144.174545 87.54319 
L 144.728454 87.168 
L 147.781818 85.228223 
L 149.120623 84.48 
L 151.389091 83.254476 
L 154.574819 81.792 
L 154.996364 81.599366 
L 158.603636 80.142196 
L 161.790516 79.104 
L 162.210909 78.961971 
L 165.818182 77.917362 
L 169.425455 77.100282 
L 173.032727 76.477396 
L 173.503215 76.416 
L 176.64 75.963016 
L 180.247273 75.61203 
L 183.854545 75.419663 
L 187.461818 75.377333 
L 191.069091 75.481554 
L 194.676364 75.733737 
L 198.283636 76.140275 
L 200.053254 76.416 
L 201.890909 76.670926 
L 205.498182 77.319289 
L 209.105455 78.14465 
L 212.480125 79.104 
L 212.712727 79.165396 
L 216.32 80.266835 
L 219.927273 81.615662 
L 220.348817 81.792 
L 223.534545 83.082592 
L 226.454944 84.48 
L 227.141818 84.805683 
L 230.749091 86.720493 
L 231.511918 87.168 
L 234.356364 88.876879 
L 235.836462 89.856 
L 237.963636 91.331571 
L 239.590705 92.544 
L 241.570909 94.129088 
L 242.88488 95.232 
L 245.178182 97.351571 
L 245.778732 97.92 
L 248.348391 100.608 
L 248.785455 101.119832 
L 250.660764 103.296 
L 252.392727 105.669881 
L 252.629372 105.984 
L 254.439485 108.672 
L 255.917607 111.36 
L 256 111.533326 
L 257.287439 114.048 
L 258.395067 116.736 
L 259.265164 119.424 
L 259.607273 120.79335 
L 259.977293 122.112 
L 260.522863 124.8 
L 260.861291 127.488 
L 261.001154 130.176 
L 260.944348 132.864 
L 260.686194 135.552 
L 260.215173 138.24 
L 259.607273 140.577411 
L 259.52488 140.928 
L 258.688972 143.616 
L 257.592457 146.304 
L 256.190602 148.992 
L 256 149.305261 
L 254.60675 151.68 
L 252.651241 154.368 
L 252.392727 154.682119 
L 250.430098 157.056 
L 248.785455 158.746374 
L 247.781345 159.744 
L 245.178182 162.019249 
L 244.674681 162.432 
L 241.570909 164.74481 
L 241.017001 165.12 
L 237.963636 167.059777 
L 236.624831 167.808 
L 234.356364 169.033524 
L 231.170635 170.496 
L 230.749091 170.688634 
L 227.141818 172.145804 
L 223.954939 173.184 
L 223.534545 173.326029 
L 219.927273 174.370638 
L 216.32 175.187718 
L 212.712727 175.810604 
L 212.24224 175.872 
L 209.105455 176.324984 
L 205.498182 176.67597 
L 201.890909 176.868337 
L 198.283636 176.910667 
L 194.676364 176.806446 
L 191.069091 176.554263 
L 187.461818 176.147725 
L 185.692201 175.872 
L 183.854545 175.617074 
L 180.247273 174.968711 
L 176.64 174.14335 
L 173.26533 173.184 
L 173.032727 173.122604 
L 169.425455 172.021165 
L 165.818182 170.672338 
L 165.396637 170.496 
L 162.210909 169.205408 
L 159.290511 167.808 
L 158.603636 167.482317 
L 154.996364 165.567507 
L 154.233536 165.12 
L 151.389091 163.411121 
L 149.908993 162.432 
L 147.781818 160.956429 
L 146.154749 159.744 
L 144.174545 158.158912 
L 142.860574 157.056 
L 140.567273 154.936429 
L 139.966723 154.368 
L 137.397064 151.68 
L 136.96 151.168168 
L 135.084691 148.992 
L 133.352727 146.618119 
L 133.116083 146.304 
L 131.305969 143.616 
L 129.827847 140.928 
L 129.745455 140.754674 
L 128.458015 138.24 
L 127.350387 135.552 
L 126.48029 132.864 
L 126.138182 131.49465 
z
M 140.567273 134.125756 
L 141.113109 135.552 
L 142.40736 138.24 
L 144.02779 140.928 
L 144.174545 141.138966 
L 145.880303 143.616 
L 147.781818 145.914258 
L 148.108941 146.304 
L 150.66895 148.992 
L 151.389091 149.664362 
L 153.656259 151.68 
L 154.996364 152.756183 
L 157.159408 154.368 
L 158.603636 155.366594 
L 161.308605 157.056 
L 162.210909 157.592621 
L 165.818182 159.500241 
L 166.341212 159.744 
L 169.425455 161.160935 
L 172.749613 162.432 
L 173.032727 162.541356 
L 176.64 163.748838 
L 180.247273 164.713264 
L 182.161279 165.12 
L 183.854545 165.499529 
L 187.461818 166.11609 
L 191.069091 166.540102 
L 194.676364 166.782587 
L 198.283636 166.848365 
L 201.890909 166.736321 
L 205.498182 166.439341 
L 209.105455 165.943912 
L 212.712727 165.229356 
L 213.143758 165.12 
L 216.32 164.332977 
L 219.927273 163.17728 
L 221.825744 162.432 
L 223.534545 161.747899 
L 227.141818 160.000902 
L 227.605614 159.744 
L 230.749091 157.887127 
L 231.979426 157.056 
L 234.356364 155.284798 
L 235.471729 154.368 
L 237.963636 152.025603 
L 238.308397 151.68 
L 240.652851 148.992 
L 241.570909 147.718667 
L 242.571069 146.304 
L 244.122004 143.616 
L 245.178182 141.249187 
L 245.324937 140.928 
L 246.283865 138.24 
L 246.948726 135.552 
L 247.347271 132.864 
L 247.497633 130.176 
L 247.409359 127.488 
L 247.083946 124.8 
L 246.514925 122.112 
L 245.687507 119.424 
L 245.178182 118.162244 
L 244.632346 116.736 
L 243.338094 114.048 
L 241.717664 111.36 
L 241.570909 111.149034 
L 239.865151 108.672 
L 237.963636 106.373742 
L 237.636513 105.984 
L 235.076504 103.296 
L 234.356364 102.623638 
L 232.089195 100.608 
L 230.749091 99.531817 
L 228.586047 97.92 
L 227.141818 96.921406 
L 224.43685 95.232 
L 223.534545 94.695379 
L 219.927273 92.787759 
L 219.404242 92.544 
L 216.32 91.127065 
L 212.995842 89.856 
L 212.712727 89.746644 
L 209.105455 88.539162 
L 205.498182 87.574736 
L 203.584175 87.168 
L 201.890909 86.788471 
L 198.283636 86.17191 
L 194.676364 85.747898 
L 191.069091 85.505413 
L 187.461818 85.439635 
L 183.854545 85.551679 
L 180.247273 85.848659 
L 176.64 86.344088 
L 173.032727 87.058644 
L 172.601697 87.168 
L 169.425455 87.955023 
L 165.818182 89.11072 
L 163.919711 89.856 
L 162.210909 90.540101 
L 158.603636 92.287098 
L 158.13984 92.544 
L 154.996364 94.400873 
L 153.766028 95.232 
L 151.389091 97.003202 
L 150.273726 97.92 
L 147.781818 100.262397 
L 147.437058 100.608 
L 145.092603 103.296 
L 144.174545 104.569333 
L 143.174386 105.984 
L 141.623451 108.672 
L 140.567273 111.038813 
L 140.420517 111.36 
L 139.46159 114.048 
L 138.796729 116.736 
L 138.398184 119.424 
L 138.247822 122.112 
L 138.336095 124.8 
L 138.661509 127.488 
L 139.230529 130.176 
L 140.057948 132.864 
z
" clip-path="url(#p4d68c7d9dd)" style="fill: #cde0f1"/>
   </g>
   <g id="PathCollection_3">
    <path d="M 140.057948 132.864 
L 139.230529 130.176 
L 138.661509 127.488 
L 138.336095 124.8 
L 138.247822 122.112 
L 138.398184 119.424 
L 138.796729 116.736 
L 139.46159 114.048 
L 140.420517 111.36 
L 140.567273 111.038813 
L 141.623451 108.672 
L 143.174386 105.984 
L 144.174545 104.569333 
L 145.092603 103.296 
L 147.437058 100.608 
L 147.781818 100.262397 
L 150.273726 97.92 
L 151.389091 97.003202 
L 153.766028 95.232 
L 154.996364 94.400873 
L 158.13984 92.544 
L 158.603636 92.287098 
L 162.210909 90.540101 
L 163.919711 89.856 
L 165.818182 89.11072 
L 169.425455 87.955023 
L 172.601697 87.168 
L 173.032727 87.058644 
L 176.64 86.344088 
L 180.247273 85.848659 
L 183.854545 85.551679 
L 187.461818 85.439635 
L 191.069091 85.505413 
L 194.676364 85.747898 
L 198.283636 86.17191 
L 201.890909 86.788471 
L 203.584175 87.168 
L 205.498182 87.574736 
L 209.105455 88.539162 
L 212.712727 89.746644 
L 212.995842 89.856 
L 216.32 91.127065 
L 219.404242 92.544 
L 219.927273 92.787759 
L 223.534545 94.695379 
L 224.43685 95.232 
L 227.141818 96.921406 
L 228.586047 97.92 
L 230.749091 99.531817 
L 232.089195 100.608 
L 234.356364 102.623638 
L 235.076504 103.296 
L 237.636513 105.984 
L 237.963636 106.373742 
L 239.865151 108.672 
L 241.570909 111.149034 
L 241.717664 111.36 
L 243.338094 114.048 
L 244.632346 116.736 
L 245.178182 118.162244 
L 245.687507 119.424 
L 246.514925 122.112 
L 247.083946 124.8 
L 247.409359 127.488 
L 247.497633 130.176 
L 247.347271 132.864 
L 246.948726 135.552 
L 246.283865 138.24 
L 245.324937 140.928 
L 245.178182 141.249187 
L 244.122004 143.616 
L 242.571069 146.304 
L 241.570909 147.718667 
L 240.652851 148.992 
L 238.308397 151.68 
L 237.963636 152.025603 
L 235.471729 154.368 
L 234.356364 155.284798 
L 231.979426 157.056 
L 230.749091 157.887127 
L 227.605614 159.744 
L 227.141818 160.000902 
L 223.534545 161.747899 
L 221.825744 162.432 
L 219.927273 163.17728 
L 216.32 164.332977 
L 213.143758 165.12 
L 212.712727 165.229356 
L 209.105455 165.943912 
L 205.498182 166.439341 
L 201.890909 166.736321 
L 198.283636 166.848365 
L 194.676364 166.782587 
L 191.069091 166.540102 
L 187.461818 166.11609 
L 183.854545 165.499529 
L 182.161279 165.12 
L 180.247273 164.713264 
L 176.64 163.748838 
L 173.032727 162.541356 
L 172.749613 162.432 
L 169.425455 161.160935 
L 166.341212 159.744 
L 165.818182 159.500241 
L 162.210909 157.592621 
L 161.308605 157.056 
L 158.603636 155.366594 
L 157.159408 154.368 
L 154.996364 152.756183 
L 153.656259 151.68 
L 151.389091 149.664362 
L 150.66895 148.992 
L 148.108941 146.304 
L 147.781818 145.914258 
L 145.880303 143.616 
L 144.174545 141.138966 
L 144.02779 140.928 
L 142.40736 138.24 
L 141.113109 135.552 
L 140.567273 134.125756 
z
M 151.389091 135.975923 
L 152.685854 138.24 
L 154.602744 140.928 
L 154.996364 141.401241 
L 156.908796 143.616 
L 158.603636 145.292041 
L 159.695495 146.304 
L 162.210909 148.362483 
L 163.055715 148.992 
L 165.818182 150.866389 
L 167.176222 151.68 
L 169.425455 152.942929 
L 172.397642 154.368 
L 173.032727 154.66131 
L 176.64 156.089703 
L 179.678371 157.056 
L 180.247273 157.236608 
L 183.854545 158.159595 
L 187.461818 158.839312 
L 191.069091 159.293855 
L 194.676364 159.533431 
L 198.283636 159.56093 
L 201.890909 159.372083 
L 205.498182 158.95522 
L 209.105455 158.290607 
L 212.712727 157.34931 
L 213.594531 157.056 
L 216.32 156.118286 
L 219.927273 154.531578 
L 220.243119 154.368 
L 223.534545 152.517961 
L 224.80235 151.68 
L 227.141818 149.936719 
L 228.266355 148.992 
L 230.749091 146.539356 
L 230.968611 146.304 
L 233.09796 143.616 
L 234.356364 141.585086 
L 234.749983 140.928 
L 236.013195 138.24 
L 236.905101 135.552 
L 237.464527 132.864 
L 237.717958 130.176 
L 237.681054 127.488 
L 237.359546 124.8 
L 236.749553 122.112 
L 235.837378 119.424 
L 234.598738 116.736 
L 234.356364 116.312077 
L 233.059601 114.048 
L 231.142711 111.36 
L 230.749091 110.886759 
L 228.836658 108.672 
L 227.141818 106.995959 
L 226.04996 105.984 
L 223.534545 103.925517 
L 222.68974 103.296 
L 219.927273 101.421611 
L 218.569233 100.608 
L 216.32 99.345071 
L 213.347813 97.92 
L 212.712727 97.62669 
L 209.105455 96.198297 
L 206.067083 95.232 
L 205.498182 95.051392 
L 201.890909 94.128405 
L 198.283636 93.448688 
L 194.676364 92.994145 
L 191.069091 92.754569 
L 187.461818 92.72707 
L 183.854545 92.915917 
L 180.247273 93.33278 
L 176.64 93.997393 
L 173.032727 94.93869 
L 172.150923 95.232 
L 169.425455 96.169714 
L 165.818182 97.756422 
L 165.502336 97.92 
L 162.210909 99.770039 
L 160.943105 100.608 
L 158.603636 102.351281 
L 157.4791 103.296 
L 154.996364 105.748644 
L 154.776844 105.984 
L 152.647494 108.672 
L 151.389091 110.702914 
L 150.995471 111.36 
L 149.73226 114.048 
L 148.840354 116.736 
L 148.280927 119.424 
L 148.027497 122.112 
L 148.0644 124.8 
L 148.385909 127.488 
L 148.995901 130.176 
L 149.908076 132.864 
L 151.146717 135.552 
z
" clip-path="url(#p4d68c7d9dd)" style="fill: #a4cce3"/>
   </g>
   <g id="PathCollection_4">
    <path d="M 151.146717 135.552 
L 149.908076 132.864 
L 148.995901 130.176 
L 148.385909 127.488 
L 148.0644 124.8 
L 148.027497 122.112 
L 148.280927 119.424 
L 148.840354 116.736 
L 149.73226 114.048 
L 150.995471 111.36 
L 151.389091 110.702914 
L 152.647494 108.672 
L 154.776844 105.984 
L 154.996364 105.748644 
L 157.4791 103.296 
L 158.603636 102.351281 
L 160.943105 100.608 
L 162.210909 99.770039 
L 165.502336 97.92 
L 165.818182 97.756422 
L 169.425455 96.169714 
L 172.150923 95.232 
L 173.032727 94.93869 
L 176.64 93.997393 
L 180.247273 93.33278 
L 183.854545 92.915917 
L 187.461818 92.72707 
L 191.069091 92.754569 
L 194.676364 92.994145 
L 198.283636 93.448688 
L 201.890909 94.128405 
L 205.498182 95.051392 
L 206.067083 95.232 
L 209.105455 96.198297 
L 212.712727 97.62669 
L 213.347813 97.92 
L 216.32 99.345071 
L 218.569233 100.608 
L 219.927273 101.421611 
L 222.68974 103.296 
L 223.534545 103.925517 
L 226.04996 105.984 
L 227.141818 106.995959 
L 228.836658 108.672 
L 230.749091 110.886759 
L 231.142711 111.36 
L 233.059601 114.048 
L 234.356364 116.312077 
L 234.598738 116.736 
L 235.837378 119.424 
L 236.749553 122.112 
L 237.359546 124.8 
L 237.681054 127.488 
L 237.717958 130.176 
L 237.464527 132.864 
L 236.905101 135.552 
L 236.013195 138.24 
L 234.749983 140.928 
L 234.356364 141.585086 
L 233.09796 143.616 
L 230.968611 146.304 
L 230.749091 146.539356 
L 228.266355 148.992 
L 227.141818 149.936719 
L 224.80235 151.68 
L 223.534545 152.517961 
L 220.243119 154.368 
L 219.927273 154.531578 
L 216.32 156.118286 
L 213.594531 157.056 
L 212.712727 157.34931 
L 209.105455 158.290607 
L 205.498182 158.95522 
L 201.890909 159.372083 
L 198.283636 159.56093 
L 194.676364 159.533431 
L 191.069091 159.293855 
L 187.461818 158.839312 
L 183.854545 158.159595 
L 180.247273 157.236608 
L 179.678371 157.056 
L 176.64 156.089703 
L 173.032727 154.66131 
L 172.397642 154.368 
L 169.425455 152.942929 
L 167.176222 151.68 
L 165.818182 150.866389 
L 163.055715 148.992 
L 162.210909 148.362483 
L 159.695495 146.304 
L 158.603636 145.292041 
L 156.908796 143.616 
L 154.996364 141.401241 
L 154.602744 140.928 
L 152.685854 138.24 
L 151.389091 135.975923 
z
M 158.603636 132.952365 
L 160.006905 135.552 
L 161.886972 138.24 
L 162.210909 138.625755 
L 164.277543 140.928 
L 165.818182 142.374081 
L 167.277815 143.616 
L 169.425455 145.216338 
L 171.092098 146.304 
L 173.032727 147.452024 
L 176.122319 148.992 
L 176.64 149.233385 
L 180.247273 150.634338 
L 183.73596 151.68 
L 183.854545 151.714556 
L 187.461818 152.503773 
L 191.069091 153.015337 
L 194.676364 153.259177 
L 198.283636 153.236097 
L 201.890909 152.937819 
L 205.498182 152.346505 
L 208.162787 151.68 
L 209.105455 151.431213 
L 212.712727 150.140024 
L 215.173806 148.992 
L 216.32 148.396685 
L 219.59381 146.304 
L 219.927273 146.055516 
L 222.735638 143.616 
L 223.534545 142.761901 
L 225.075184 140.928 
L 226.807948 138.24 
L 227.141818 137.53756 
L 228.036262 135.552 
L 228.829801 132.864 
L 229.230087 130.176 
L 229.26106 127.488 
L 228.933829 124.8 
L 228.247314 122.112 
L 227.188192 119.424 
L 227.141818 119.335635 
L 225.738549 116.736 
L 223.858482 114.048 
L 223.534545 113.662245 
L 221.467911 111.36 
L 219.927273 109.913919 
L 218.467639 108.672 
L 216.32 107.071662 
L 214.653356 105.984 
L 212.712727 104.835976 
L 209.623135 103.296 
L 209.105455 103.054615 
L 205.498182 101.653662 
L 202.009494 100.608 
L 201.890909 100.573444 
L 198.283636 99.784227 
L 194.676364 99.272663 
L 191.069091 99.028823 
L 187.461818 99.051903 
L 183.854545 99.350181 
L 180.247273 99.941495 
L 177.582668 100.608 
L 176.64 100.856787 
L 173.032727 102.147976 
L 170.571648 103.296 
L 169.425455 103.891315 
L 166.151645 105.984 
L 165.818182 106.232484 
L 163.009816 108.672 
L 162.210909 109.526099 
L 160.670271 111.36 
L 158.937506 114.048 
L 158.603636 114.75044 
L 157.709192 116.736 
L 156.915654 119.424 
L 156.515367 122.112 
L 156.484395 124.8 
L 156.811625 127.488 
L 157.49814 130.176 
L 158.557263 132.864 
z
" clip-path="url(#p4d68c7d9dd)" style="fill: #6aaed6"/>
   </g>
   <g id="PathCollection_5">
    <path d="M 158.557263 132.864 
L 157.49814 130.176 
L 156.811625 127.488 
L 156.484395 124.8 
L 156.515367 122.112 
L 156.915654 119.424 
L 157.709192 116.736 
L 158.603636 114.75044 
L 158.937506 114.048 
L 160.670271 111.36 
L 162.210909 109.526099 
L 163.009816 108.672 
L 165.818182 106.232484 
L 166.151645 105.984 
L 169.425455 103.891315 
L 170.571648 103.296 
L 173.032727 102.147976 
L 176.64 100.856787 
L 177.582668 100.608 
L 180.247273 99.941495 
L 183.854545 99.350181 
L 187.461818 99.051903 
L 191.069091 99.028823 
L 194.676364 99.272663 
L 198.283636 99.784227 
L 201.890909 100.573444 
L 202.009494 100.608 
L 205.498182 101.653662 
L 209.105455 103.054615 
L 209.623135 103.296 
L 212.712727 104.835976 
L 214.653356 105.984 
L 216.32 107.071662 
L 218.467639 108.672 
L 219.927273 109.913919 
L 221.467911 111.36 
L 223.534545 113.662245 
L 223.858482 114.048 
L 225.738549 116.736 
L 227.141818 119.335635 
L 227.188192 119.424 
L 228.247314 122.112 
L 228.933829 124.8 
L 229.26106 127.488 
L 229.230087 130.176 
L 228.829801 132.864 
L 228.036262 135.552 
L 227.141818 137.53756 
L 226.807948 138.24 
L 225.075184 140.928 
L 223.534545 142.761901 
L 222.735638 143.616 
L 219.927273 146.055516 
L 219.59381 146.304 
L 216.32 148.396685 
L 215.173806 148.992 
L 212.712727 150.140024 
L 209.105455 151.431213 
L 208.162787 151.68 
L 205.498182 152.346505 
L 201.890909 152.937819 
L 198.283636 153.236097 
L 194.676364 153.259177 
L 191.069091 153.015337 
L 187.461818 152.503773 
L 183.854545 151.714556 
L 183.73596 151.68 
L 180.247273 150.634338 
L 176.64 149.233385 
L 176.122319 148.992 
L 173.032727 147.452024 
L 171.092098 146.304 
L 169.425455 145.216338 
L 167.277815 143.616 
L 165.818182 142.374081 
L 164.277543 140.928 
L 162.210909 138.625755 
L 161.886972 138.24 
L 160.006905 135.552 
L 158.603636 132.952365 
z
M 165.818182 130.136443 
L 165.83032 130.176 
L 167.135722 132.864 
L 168.950992 135.552 
L 169.425455 136.107282 
L 171.455 138.24 
L 173.032727 139.603227 
L 174.810561 140.928 
L 176.64 142.103661 
L 179.50209 143.616 
L 180.247273 143.969551 
L 183.854545 145.32222 
L 187.461818 146.294955 
L 187.514904 146.304 
L 191.069091 146.877171 
L 194.676364 147.118833 
L 198.283636 147.017002 
L 201.890909 146.556426 
L 202.993465 146.304 
L 205.498182 145.671948 
L 209.105455 144.310163 
L 210.481549 143.616 
L 212.712727 142.291227 
L 214.542166 140.928 
L 216.32 139.265413 
L 217.25156 138.24 
L 219.079065 135.552 
L 219.927273 133.685582 
L 220.266026 132.864 
L 220.884115 130.176 
L 221.020771 127.488 
L 220.696463 124.8 
L 219.927273 122.151557 
L 219.915135 122.112 
L 218.609732 119.424 
L 216.794462 116.736 
L 216.32 116.180718 
L 214.290455 114.048 
L 212.712727 112.684773 
L 210.934894 111.36 
L 209.105455 110.184339 
L 206.243365 108.672 
L 205.498182 108.318449 
L 201.890909 106.96578 
L 198.283636 105.993045 
L 198.230551 105.984 
L 194.676364 105.410829 
L 191.069091 105.169167 
L 187.461818 105.270998 
L 183.854545 105.731574 
L 182.75199 105.984 
L 180.247273 106.616052 
L 176.64 107.977837 
L 175.263905 108.672 
L 173.032727 109.996773 
L 171.203288 111.36 
L 169.425455 113.022587 
L 168.493894 114.048 
L 166.66639 116.736 
L 165.818182 118.602418 
L 165.479429 119.424 
L 164.86134 122.112 
L 164.724683 124.8 
L 165.048992 127.488 
z
" clip-path="url(#p4d68c7d9dd)" style="fill: #3d8dc4"/>
   </g>
   <g id="PathCollection_6">
    <path d="M 165.048992 127.488 
L 164.724683 124.8 
L 164.86134 122.112 
L 165.479429 119.424 
L 165.818182 118.602418 
L 166.66639 116.736 
L 168.493894 114.048 
L 169.425455 113.022587 
L 171.203288 111.36 
L 173.032727 109.996773 
L 175.263905 108.672 
L 176.64 107.977837 
L 180.247273 106.616052 
L 182.75199 105.984 
L 183.854545 105.731574 
L 187.461818 105.270998 
L 191.069091 105.169167 
L 194.676364 105.410829 
L 198.230551 105.984 
L 198.283636 105.993045 
L 201.890909 106.96578 
L 205.498182 108.318449 
L 206.243365 108.672 
L 209.105455 110.184339 
L 210.934894 111.36 
L 212.712727 112.684773 
L 214.290455 114.048 
L 216.32 116.180718 
L 216.794462 116.736 
L 218.609732 119.424 
L 219.915135 122.112 
L 219.927273 122.151557 
L 220.696463 124.8 
L 221.020771 127.488 
L 220.884115 130.176 
L 220.266026 132.864 
L 219.927273 133.685582 
L 219.079065 135.552 
L 217.25156 138.24 
L 216.32 139.265413 
L 214.542166 140.928 
L 212.712727 142.291227 
L 210.481549 143.616 
L 209.105455 144.310163 
L 205.498182 145.671948 
L 202.993465 146.304 
L 201.890909 146.556426 
L 198.283636 147.017002 
L 194.676364 147.118833 
L 191.069091 146.877171 
L 187.514904 146.304 
L 187.461818 146.294955 
L 183.854545 145.32222 
L 180.247273 143.969551 
L 179.50209 143.616 
L 176.64 142.103661 
L 174.810561 140.928 
L 173.032727 139.603227 
L 171.455 138.24 
L 169.425455 136.107282 
L 168.950992 135.552 
L 167.135722 132.864 
L 165.83032 130.176 
L 165.818182 130.136443 
z
M 176.64 132.201555 
L 177.14156 132.864 
L 179.983049 135.552 
L 180.247273 135.748889 
L 183.854545 137.866257 
L 184.743541 138.24 
L 187.461818 139.204297 
L 191.069091 139.971872 
L 194.676364 140.222396 
L 198.283636 139.935127 
L 201.890909 139.06922 
L 203.916526 138.24 
L 205.498182 137.415613 
L 207.999134 135.552 
L 209.105455 134.373411 
L 210.21826 132.864 
L 211.3803 130.176 
L 211.765813 127.488 
L 211.429611 124.8 
L 210.399533 122.112 
L 209.105455 120.086445 
L 208.603894 119.424 
L 205.762405 116.736 
L 205.498182 116.539111 
L 201.890909 114.421743 
L 201.001913 114.048 
L 198.283636 113.083703 
L 194.676364 112.316128 
L 191.069091 112.065604 
L 187.461818 112.352873 
L 183.854545 113.21878 
L 181.828928 114.048 
L 180.247273 114.872387 
L 177.746321 116.736 
L 176.64 117.914589 
L 175.527195 119.424 
L 174.365154 122.112 
L 173.979641 124.8 
L 174.315843 127.488 
L 175.345922 130.176 
z
" clip-path="url(#p4d68c7d9dd)" style="fill: #1967ad"/>
   </g>
   <g id="PathCollection_7">
    <path d="M 175.345922 130.176 
L 174.315843 127.488 
L 173.979641 124.8 
L 174.365154 122.112 
L 175.527195 119.424 
L 176.64 117.914589 
L 177.746321 116.736 
L 180.247273 114.872387 
L 181.828928 114.048 
L 183.854545 113.21878 
L 187.461818 112.352873 
L 191.069091 112.065604 
L 194.676364 112.316128 
L 198.283636 113.083703 
L 201.001913 114.048 
L 201.890909 114.421743 
L 205.498182 116.539111 
L 205.762405 116.736 
L 208.603894 119.424 
L 209.105455 120.086445 
L 210.399533 122.112 
L 211.429611 124.8 
L 211.765813 127.488 
L 211.3803 130.176 
L 210.21826 132.864 
L 209.105455 134.373411 
L 207.999134 135.552 
L 205.498182 137.415613 
L 203.916526 138.24 
L 201.890909 139.06922 
L 198.283636 139.935127 
L 194.676364 140.222396 
L 191.069091 139.971872 
L 187.461818 139.204297 
L 184.743541 138.24 
L 183.854545 137.866257 
L 180.247273 135.748889 
L 179.983049 135.552 
L 177.14156 132.864 
L 176.64 132.201555 
z
" clip-path="url(#p4d68c7d9dd)" style="fill: #084387"/>
   </g>
   <g id="PathCollection_8">
    <defs>
     <path id="m231efb355b" d="M 0 4.5 
C 1.193414 4.5 2.338109 4.025852 3.181981 3.181981 
C 4.025852 2.338109 4.5 1.193414 4.5 0 
C 4.5 -1.193414 4.025852 -2.338109 3.181981 -3.181981 
C 2.338109 -4.025852 1.193414 -4.5 0 -4.5 
C -1.193414 -4.5 -2.338109 -4.025852 -3.181981 -3.181981 
C -4.025852 -2.338109 -4.5 -1.193414 -4.5 0 
C -4.5 1.193414 -4.025852 2.338109 -3.181981 3.181981 
C -2.338109 4.025852 -1.193414 4.5 0 4.5 
z
" style="stroke: #0000ff; stroke-width: 1.5"/>
    </defs>
    <g clip-path="url(#p4d68c7d9dd)">
     <use xlink:href="#m231efb355b" x="165.818182" y="119.424" style="fill: #0000ff; stroke: #0000ff; stroke-width: 1.5"/>
     <use xlink:href="#m231efb355b" x="201.890909" y="92.544" style="fill: #0000ff; stroke: #0000ff; stroke-width: 1.5"/>
     <use xlink:href="#m231efb355b" x="237.963636" y="146.304" style="fill: #0000ff; stroke: #0000ff; stroke-width: 1.5"/>
     <use xlink:href="#m231efb355b" x="165.818182" y="146.304" style="fill: #0000ff; stroke: #0000ff; stroke-width: 1.5"/>
    </g>
   </g>
   <g id="patch_3">
    <path d="M 57.6 307.584 
L 57.6 41.472 
" style="fill: none; stroke: #cccccc; stroke-width: 1.875; stroke-linejoin: miter; stroke-linecap: square"/>
   </g>
   <g id="patch_4">
    <path d="M 414.72 307.584 
L 414.72 41.472 
" style="fill: none; stroke: #cccccc; stroke-width: 1.875; stroke-linejoin: miter; stroke-linecap: square"/>
   </g>
   <g id="patch_5">
    <path d="M 57.6 307.584 
L 414.72 307.584 
" style="fill: none; stroke: #cccccc; stroke-width: 1.875; stroke-linejoin: miter; stroke-linecap: square"/>
   </g>
   <g id="patch_6">
    <path d="M 57.6 41.472 
L 414.72 41.472 
" style="fill: none; stroke: #cccccc; stroke-width: 1.875; stroke-linejoin: miter; stroke-linecap: square"/>
   </g>
  </g>
 </g>
 <defs>
  <clipPath id="p4d68c7d9dd">
   <rect x="57.6" y="41.472" width="357.12" height="266.112"/>
  </clipPath>
 </defs>
</svg>
